<svg xmlns="http://www.w3.org/2000/svg" xmlns:xlink="http://www.w3.org/1999/xlink" viewBox="0 0 261.6 530.1"><defs><style>.cls-1{fill:#c3c7c9;}.cls-2{fill:#3f3f3f;}.cls-3{fill:#d7dbdd;}.cls-4{opacity:0.1;fill:url(#linear-gradient);}</style><linearGradient id="linear-gradient" x1="776.54" y1="-463.56" x2="123.41" y2="263.31" gradientUnits="userSpaceOnUse"><stop offset="0.46" stop-color="#fff"/><stop offset="1"/></linearGradient></defs><title>Asset 7</title><g id="Layer_2" data-name="Layer 2"><g id="Layer_1-2" data-name="Layer 1"><circle class="cls-1" cx="131.5" cy="494.23" r="20.04"/><circle class="cls-2" cx="66.85" cy="27.69" r="6.72"/><rect class="cls-2" x="91.17" y="23.33" width="80.66" height="8.72" rx="0.22" ry="0.22"/><path class="cls-3" d="M234.87,0H26.72A26.8,26.8,0,0,0,0,26.72V503.38A26.8,26.8,0,0,0,26.72,530.1H234.87a26.8,26.8,0,0,0,26.72-26.72V26.72A26.8,26.8,0,0,0,234.87,0ZM251,463.41H12V44.16H251Z"/><circle class="cls-2" cx="131.16" cy="12.24" r="4.06"/><rect class="cls-4" x="11.96" y="44.68" width="239.07" height="419.25"/><circle class="cls-2" cx="66.34" cy="29.15" r="6.72"/><rect class="cls-2" x="90.66" y="24.79" width="80.66" height="8.72" rx="0.22" ry="0.22"/><circle class="cls-1" cx="131.5" cy="496.4" r="20.04"/></g></g></svg>